<svg xmlns="http://www.w3.org/2000/svg" viewBox="0 0 256 256" role="img" aria-labelledby="title desc">
  <title id="title">Context Loom mark</title>
  <desc id="desc">Two colored strands weave around a central shared context.</desc>
  <rect x="8" y="8" width="240" height="240" rx="58" fill="#172B4D"/>
  <path d="M70 74C91 53 113 62 128 82C144 104 157 113 183 91C201 76 209 52 198 44" fill="none" stroke="#68BEFF" stroke-width="18" stroke-linecap="round"/>
  <path d="M58 44C47 53 55 77 73 92C99 113 112 104 128 82C143 62 165 53 186 74" fill="none" stroke="#A98BFF" stroke-width="18" stroke-linecap="round"/>
  <path d="M70 182C91 203 113 194 128 174C144 152 157 143 183 165C201 180 209 204 198 212" fill="none" stroke="#A98BFF" stroke-width="18" stroke-linecap="round"/>
  <path d="M58 212C47 203 55 179 73 164C99 143 112 152 128 174C143 194 165 203 186 182" fill="none" stroke="#68BEFF" stroke-width="18" stroke-linecap="round"/>
  <circle cx="128" cy="128" r="23" fill="#F8FBFF"/>
  <circle cx="128" cy="128" r="9" fill="#172B4D"/>
</svg>
